PathFileType	4	(X/Y/Z)	pose_F01_0-87.trc
DataRate	CameraRate	NumFrames	NumMarkers	Units	OrigDataRate	OrigDataStartFrame	OrigNumFrames
30	30	6	21	m	30	76	87
Frame#	Time	CHip			RHip			RKnee			RAnkle			RBigToe			RSmallToe			RHeel			LHip			LKnee			LAnkle			LBigToe			LSmallToe			LHeel			Neck			Nose			RShoulder			RElbow			RWrist			LShoulder			LElbow			LWrist			
		X1	Y1	Z1	X2	Y2	Z2	X3	Y3	Z3	X4	Y4	Z4	X5	Y5	Z5	X6	Y6	Z6	X7	Y7	Z7	X8	Y8	Z8	X9	Y9	Z9	X10	Y10	Z10	X11	Y11	Z11	X12	Y12	Z12	X13	Y13	Z13	X14	Y14	Z14	X15	Y15	Z15	X16	Y16	Z16	X17	Y17	Z17	X18	Y18	Z18	X19	Y19	Z19	X20	Y20	Z20	X21	Y21	Z21	
76	2.533333333333333	-1.0017461558715846	1.821683264071714	0.06523986078005425	-0.2700828377020731	1.888760900763521	-0.6273133165129071	-0.2800145077537211	1.752446751099481	-0.5735190399122956	-0.2914695350539883	1.6168907499443277	-0.5041858371453071	-0.25886552925079054	1.5764035614802898	-0.5306925428602638	-0.2666685453490036	1.5776933695397657	-0.49102529446471976	-0.29951104384638627	1.6056463273007646	-0.49899592497194045	-0.25481763913939076	1.8956410002025676	-0.7411243088151387	-0.2734888601383878	1.7560027086982006	-0.7069613590828114	-0.27948434005345946	1.6277778705526167	-0.6872780526301439	-0.5271285244629745	1.5232622657405943	-0.4908629182835815	-0.49870175419536517	1.5296411344760314	-0.5220216768187588	-0.28898551310614656	1.6171366768481634	-0.6624640869454538	-0.2687713824474462	2.041904699274331	-0.6690203373297817	-0.2428673374415514	2.1099259515799282	-0.7223789008094615	-0.2820786713140666	2.039042511494442	-0.5859973902669059	-0.28267449709958437	1.9550870847879736	-0.5585229269326187	-0.2681271709680225	1.8841213843373292	-0.557096947612434	-0.2596765065781218	2.04540030302471	-0.7532265497903002	-0.2590763402228842	1.962855177757829	-0.771113317716629	-0.24954494083310913	1.8986349200371633	-0.8056651596959946
77	2.566666666666667	-0.9815234107921904	1.8244268006502817	0.036134238684355995	-0.27213520674072395	1.89186754684902	-0.6341287328570141	-0.28220069790569385	1.7512610666997237	-0.5796289705876051	-0.28917897770402545	1.614356094336482	-0.5065528167501899	-0.2584352680290801	1.5764528587914022	-0.5315416705376872	-0.26619447163658955	1.5774042295973858	-0.4917717942992821	-0.29719766822446214	1.603622310941722	-0.5015479512784268	-0.25681439296610503	1.8981253080350964	-0.747752116873309	-0.27564144182839834	1.758939235457181	-0.7132403688892744	-0.28186321112246676	1.628936353372819	-0.6850716675895298	-0.5336553363185078	1.5245962215365845	-0.47946346365664894	-0.5041116913122279	1.5313134107007405	-0.5159296487866896	-0.2889467947633537	1.6159056425286964	-0.6613315415976839	-0.27057079830886216	2.0422004031398897	-0.6750209930875049	-0.24380813572751014	2.1087156897289008	-0.724946110435813	-0.28302248022301	2.039157157322582	-0.5892950207084692	-0.2836136736553432	1.9575240809039707	-0.5703895731678945	-0.2687197955402041	1.8901895839407066	-0.5696021762256432	-0.26274101037738506	2.0454414497586804	-0.7541187960401979	-0.2643840800553676	1.9632298341931074	-0.7696899362040779	-0.2525304344167791	1.9027206489787687	-0.8071403155994856
78	2.6	-0.9757539108089665	1.819166466691218	0.029806359066413643	-0.27084621826366356	1.8892853718064084	-0.6390036738617527	-0.2817381882410221	1.7533852894650632	-0.5804025288426442	-0.29062374801234653	1.6170883591299439	-0.5095556285333269	-0.2587937869701341	1.5759610977639364	-0.5307110435303972	-0.267731958435738	1.5775107989517279	-0.49428268529245617	-0.29878007408557633	1.6072641665807283	-0.5045101997027517	-0.25741417223307916	1.895508347330888	-0.7504894732775117	-0.6575196449907137	1.6963561300976409	-0.3477969094103429	-0.2798017173175014	1.6299201525447111	-0.6871904027019539	-0.5286367030985698	1.5247626801757146	-0.4870511207107028	-0.49891039408353194	1.5296644824420156	-0.5217428009303684	-0.28890807642056093	1.6146746082092294	-0.6601989962499141	-0.272339790070493	2.0424339980265436	-0.681051893567151	-0.24465955832325934	2.1087798693233246	-0.7277731099008612	-0.28199452832388405	2.038024782180614	-0.5940403285456517	-0.2827081815913713	1.9562816984599602	-0.5757746945331135	-0.2686379413033679	1.8912960525232125	-0.5783905244356289	-0.2592110267951701	2.0455382811802854	-0.7615535067691086	-0.26156728812257024	1.9638260590094316	-0.7803161321007968	-0.2501752401113214	1.898405894020217	-0.808422395528547
79	2.6333333333333333	-0.9723779041445606	1.8208815556300761	0.022608586279808395	-0.27186968322292665	1.8878438720841306	-0.6419833084987075	-0.28290969397310206	1.7518674180024791	-0.5832592452800471	-0.29108304547587177	1.6140010457296916	-0.5046779848374737	-0.2586714575411556	1.5751320667811208	-0.5309939091098409	-0.267645306200918	1.5772631484948927	-0.4941929904920105	-0.2993147801773479	1.6037824007247583	-0.4995221216784549	-0.258283537279177	1.8952899822345142	-0.7535003967564339	-0.6587060443288082	1.6996686997276635	-0.347292943009	-0.2814921865701485	1.6294866068078981	-0.6854817241329529	-0.5314840693237124	1.5243822370631634	-0.4844438326166676	-0.5038562832649474	1.5312744946531447	-0.5162712152050367	-0.28955608604317223	1.6140272936011466	-0.6614643666608125	-0.2732845318893911	2.0423465329268384	-0.6840868571343112	-0.2446683209709754	2.10880768594823	-0.727929435079699	-0.28295828633681513	2.038127179170192	-0.5971414466926802	-0.28254378944192593	1.956132989148461	-0.5755408966892234	-0.2701475593927005	1.888001624948258	-0.5844000375027335	-0.2600851109110945	2.044056523578879	-0.7641538723988656	-0.2616807528015938	1.9623126256843455	-0.7803102970972567	-0.2503690697566777	1.8978754406320606	-0.8089973955304389
80	2.6666666666666665	-0.959981474792008	1.8176994746240225	0.008701099604970853	-0.2728205812696834	1.887254761682214	-0.6367760841139788	-0.28188756184099745	1.7509335159592645	-0.5801110014908832	-0.2911759867535766	1.6145985537376406	-0.5047531776044496	-0.2610260045102167	1.5765181483303317	-0.5285946227467686	-0.2677858876342623	1.5773173612981264	-0.4941159287481169	-0.2982835581285955	1.603740743970297	-0.5048588391940049	-0.2573751357450596	1.8937049969041775	-0.7503652359236798	-0.6573367920938615	1.6961808722829854	-0.3477840627850533	-0.28201255063063646	1.6297643812368394	-0.6850253418280201	-0.5321107349680879	1.5248295839014603	-0.4851474018739945	-0.5070757448343408	1.5310822760691813	-0.5141229325190935	-0.29020409566578353	1.6133799789930636	-0.662729737071711	-0.2712721127140867	2.041185345262059	-0.6857627738341174	-0.246915296540536	2.1077179638204315	-0.7259479318115131	-0.2839152212697346	2.0382387747297956	-0.6000816269128761	-0.28547656466791804	1.9549878363880566	-0.576213407850599	-0.27426486956195717	1.88884061359921	-0.5885797275603747	-0.25779069054985665	2.0444475843738927	-0.7663408282742536	-0.2624064127599102	1.9623678001577132	-0.783471399264581	-0.25003498757537573	1.8935078115619057	-0.808813067784207
81	2.7	-0.9628516222644805	1.8199826024551584	0.011807814469987986	-0.2735550088901561	1.888897472419802	-0.6399124457951696	-0.2815816979872605	1.7546106329206317	-0.5807217326025412	-0.2911676256369822	1.6141301827293368	-0.5045666646470441	-0.26024604048409267	1.5751904315714729	-0.5293339108491972	-0.26741886964226813	1.5783501106907778	-0.49463431435193483	-0.2996333248615504	1.6025797366736143	-0.499005654402421	-0.25818717768300115	1.894112109557812	-0.7533368408361385	-0.6530025996807303	1.6979086520080193	-0.3535879054470682	-0.2818196685990207	1.6287174566621931	-0.685006603430876	-0.531758256835716	1.5243926688755554	-0.48404877022334253	-0.5041313816506153	1.5313054838494866	-0.5159763592529011	-0.2900464212758102	1.6123960995237203	-0.6627316361026696	-0.27124915963427254	2.041146009824827	-0.6858671389504737	-0.2477534221572688	2.1078124886140124	-0.7286901226192896	-0.28591824285226314	2.0381768345780773	-0.5980655186926537	-0.28752790669302	1.9562672776809285	-0.5743519275659414	-0.27454543496363704	1.887829590712777	-0.5881786955892492	-0.2542556455084783	2.046000186533535	-0.7738503323581832	-0.26020461980492	1.9638239692875497	-0.7855185020801906	-0.2502507427630128	1.8989740958422945	-0.8085843510709652
